<mxfile host="app.diagrams.net" modified="2025-10-22T00:00:00.000Z" agent="drawio-desktop" version="24.7.0">
  <diagram id="packages" name="Packages">
    <mxGraphModel dx="1200" dy="800" grid="1" gridSize="10" guides="1" tooltips="1" connect="1" arrows="1" fold="1" page="1" pageScale="1" pageWidth="1920" pageHeight="1080" math="0" shadow="0">
      <root>
        <mxCell id="0" />
        <mxCell id="1" parent="0" />

        <!-- com.team3.vinyls as UML package -->
        <mxCell id="pkg_root" value="&lt;b&gt;com.team3.vinyls&lt;/b&gt;" style="rounded=0;whiteSpace=wrap;html=1;strokeColor=#000000;fillColor=#FFFFFF;fontColor=#000000;" vertex="1" parent="1">
          <mxGeometry x="40" y="40" width="760" height="540" as="geometry" />
        </mxCell>

        <!-- albums -->
        <mxCell id="pkg_albums" value="&lt;b&gt;albums&lt;/b&gt;\n&amp;lt;&amp;lt;package&amp;gt;&amp;gt;" style="rounded=0;whiteSpace=wrap;html=1;strokeColor=#000000;fillColor=#FFFFFF;fontColor=#000000;" vertex="1" parent="pkg_root">
          <mxGeometry x="60" y="80" width="700" height="360" as="geometry" />
        </mxCell>

        <mxCell id="pkg_albums_ui" value="&lt;b&gt;albums.ui&lt;/b&gt;\nAlbumsFragment, AlbumsAdapter, AlbumDetailFragment" style="rounded=0;whiteSpace=wrap;html=1;strokeColor=#000000;fillColor=#FFFFFF;fontColor=#000000;" vertex="1" parent="pkg_albums">
          <mxGeometry x="80" y="120" width="620" height="90" as="geometry" />
        </mxCell>
        <mxCell id="pkg_albums_data" value="&lt;b&gt;albums.data&lt;/b&gt;\nAlbumRepository, AlbumsService, AlbumDto" style="rounded=0;whiteSpace=wrap;html=1;strokeColor=#000000;fillColor=#FFFFFF;fontColor=#000000;" vertex="1" parent="pkg_albums">
          <mxGeometry x="80" y="230" width="620" height="90" as="geometry" />
        </mxCell>
        <mxCell id="pkg_albums_vm" value="&lt;b&gt;albums&lt;/b&gt; (ViewModel)\nAlbumsViewModel" style="rounded=0;whiteSpace=wrap;html=1;strokeColor=#000000;fillColor=#FFFFFF;fontColor=#000000;" vertex="1" parent="pkg_albums">
          <mxGeometry x="80" y="330" width="620" height="70" as="geometry" />
        </mxCell>

        <!-- core.network -->
        <mxCell id="pkg_core" value="&lt;b&gt;core.network&lt;/b&gt;\nNetworkModule (Retrofit/OkHttp/Moshi)" style="rounded=0;whiteSpace=wrap;html=1;strokeColor=#000000;fillColor=#FFFFFF;fontColor=#000000;" vertex="1" parent="pkg_root">
          <mxGeometry x="60" y="460" width="700" height="90" as="geometry" />
        </mxCell>
      </root>
    </mxGraphModel>
  </diagram>
  </mxfile>

